<?xml version="1.0" encoding="UTF-8" standalone="no"?>
<svg
   width="24"
   height="24"
   viewBox="0 0 24 24"
   fill="none"
   stroke="currentColor"
   stroke-width="2"
   stroke-linecap="round"
   stroke-linejoin="round"
   version="1.1"
   id="svg2"
   sodipodi:docname="stop.svg"
   inkscape:version="1.4.4 (dcaf3e7d9e, 2026-05-05)"
   xmlns:inkscape="http://www.inkscape.org/namespaces/inkscape"
   xmlns:sodipodi="http://sodipodi.sourceforge.net/DTD/sodipodi-0.dtd"
   xmlns="http://www.w3.org/2000/svg"
   xmlns:svg="http://www.w3.org/2000/svg">
  <defs
     id="defs2" />
  <sodipodi:namedview
     id="namedview2"
     pagecolor="#ffffff"
     bordercolor="#999999"
     borderopacity="1"
     inkscape:showpageshadow="2"
     inkscape:pageopacity="0"
     inkscape:pagecheckerboard="0"
     inkscape:deskcolor="#d1d1d1"
     inkscape:zoom="16.604167"
     inkscape:cx="10.690088"
     inkscape:cy="11.171894"
     inkscape:window-width="1920"
     inkscape:window-height="1011"
     inkscape:window-x="0"
     inkscape:window-y="0"
     inkscape:window-maximized="1"
     inkscape:current-layer="svg2" />
  <!-- 외부 원 -->
  <path
     id="circle1"
     style="fill:#000000;fill-opacity:1;stroke:none;stroke-width:2.01205;stroke-opacity:1"
     d="M 12,1.9397742 A 10.060226,10.060226 0 0 0 1.9397742,12 10.060226,10.060226 0 0 0 12,22.060226 10.060226,10.060226 0 0 0 22.060226,12 10.060226,10.060226 0 0 0 12,1.9397742 Z M 8.983897,7.759772 h 6.032206 c 0.678389,0 1.224125,0.5457371 1.224125,1.224125 v 6.032206 c 0,0.678389 -0.545736,1.224125 -1.224125,1.224125 H 8.983897 c -0.6783879,0 -1.224125,-0.545736 -1.224125,-1.224125 V 8.983897 c 0,-0.6783879 0.5457371,-1.224125 1.224125,-1.224125 z" />
  <!-- 내부 일시정지 기둥 2개 -->
</svg>
