<?xml version="1.0" encoding="UTF-8" standalone="no"?>
<svg
   width="48"
   height="48"
   viewBox="0 0 24 24"
   fill="none"
   version="1.1"
   id="svg1"
   sodipodi:docname="bonfire.svg"
   inkscape:version="1.4.4 (dcaf3e7d9e, 2026-05-05)"
   xml:space="preserve"
   xmlns:inkscape="http://www.inkscape.org/namespaces/inkscape"
   xmlns:sodipodi="http://sodipodi.sourceforge.net/DTD/sodipodi-0.dtd"
   xmlns="http://www.w3.org/2000/svg"
   xmlns:svg="http://www.w3.org/2000/svg"><defs
     id="defs1" /><sodipodi:namedview
     id="namedview1"
     pagecolor="#ffffff"
     bordercolor="#999999"
     borderopacity="1"
     inkscape:showpageshadow="2"
     inkscape:pageopacity="0"
     inkscape:pagecheckerboard="0"
     inkscape:deskcolor="#d1d1d1"
     inkscape:zoom="10.169059"
     inkscape:cx="27.485336"
     inkscape:cy="28.075361"
     inkscape:window-width="1920"
     inkscape:window-height="1011"
     inkscape:window-x="0"
     inkscape:window-y="0"
     inkscape:window-maximized="1"
     inkscape:current-layer="svg1" /><g
     id="g1"
     transform="matrix(1.0015711,0,0,0.93167451,-0.01890797,0.84291791)"
     style="stroke-width:0.82816522;stroke-dasharray:none"><path
       style="fill:none;fill-opacity:0.6371;stroke:#000000;stroke-width:0.82816522;stroke-linecap:round;stroke-linejoin:round;stroke-dasharray:none;stroke-dashoffset:2;stroke-opacity:1"
       d="m 8.8922045,-0.0614714 c 0,0 1.5441285,1.7809239 -0.4460814,5.0711053 -1.9902086,3.2901816 -1.2696158,4.9503656 0.3088256,7.0029551"
       id="path14" /><path
       style="fill:none;fill-opacity:0.6371;stroke:#000000;stroke-width:0.82816522;stroke-linecap:round;stroke-linejoin:round;stroke-dasharray:none;stroke-dashoffset:2;stroke-opacity:1"
       d="M 8.8235763,18.442026 C 6.6274843,18.472206 4.6029616,16.147954 4.8431589,14.940549 5.083357,13.733143 5.5637518,9.6883324 5.5637518,9.6883324 c 0,0 0.3630984,2.9137256 1.673334,3.2979196"
       id="path15" /><path
       style="fill:none;fill-opacity:0.6371;stroke:#000000;stroke-width:0.82816522;stroke-linecap:round;stroke-linejoin:round;stroke-dasharray:none;stroke-dashoffset:2;stroke-opacity:1"
       d="m 10.333391,0.84408315 c 0,0 -1.2353025,3.07888555 1.269616,4.82962425 2.504917,1.7507388 3.774533,2.4751823 3.671591,4.2561062 -0.102937,1.7809234 -0.308825,2.8675894 -0.308825,2.8675894"
       id="path16"
       sodipodi:nodetypes="cssc" /><path
       style="fill:none;fill-opacity:0.6371;stroke:#000000;stroke-width:0.82816522;stroke-linecap:round;stroke-linejoin:round;stroke-dasharray:none;stroke-dashoffset:2;stroke-opacity:1"
       d="m 16.921667,9.9901842 c 0,0 0.308831,2.6864788 -1.681382,3.6222178"
       id="path17"
       sodipodi:nodetypes="cc" /><path
       style="fill:none;fill-opacity:0.6371;stroke:#000000;stroke-width:0.82816522;stroke-linecap:round;stroke-linejoin:round;stroke-dasharray:none;stroke-dashoffset:2;stroke-opacity:1"
       d="m 17.951085,9.3864808 c 0,0 2.470603,3.4411082 -1.784326,8.9649902"
       id="path18" /><path
       style="fill:none;fill-opacity:0.6371;stroke:#000000;stroke-width:0.82816522;stroke-linecap:round;stroke-linejoin:round;stroke-dasharray:none;stroke-dashoffset:2;stroke-opacity:1"
       d="m 9.6471119,18.804247 2.9166851,0.392409 2.230406,-1.660184 c 0,0 0.686278,1.05648 -2.333348,2.263886"
       id="path19" /><path
       style="fill:none;fill-opacity:0.6371;stroke:#000000;stroke-width:0.82816522;stroke-linecap:round;stroke-linejoin:round;stroke-dasharray:none;stroke-dashoffset:2;stroke-opacity:1"
       d="m 11.225553,17.204434 c 0,0 -1.7190404,-1.019221 -1.6470694,-3.501476 0.4151108,0.113672 1.7500124,1.690368 1.7500124,1.690368 0,0 0.44608,-2.565737 0.377453,-3.531662 -0.06863,-0.965925 0.377453,3.109071 0.960789,3.561847 0.583337,0.452778 1.681384,-0.03018 1.681384,-0.03018 0,0 -1.475499,1.177221 -1.303931,1.720553"
       id="path20"
       sodipodi:nodetypes="cccsscc" /><path
       style="fill:none;fill-opacity:0.6371;stroke:#000000;stroke-width:0.82816522;stroke-linecap:round;stroke-linejoin:round;stroke-dasharray:none;stroke-dashoffset:2;stroke-opacity:1"
       d="m 7.3652339,19.468321 c 0,0 -3.4657085,-0.135833 -3.7916908,0.105654 -0.3259823,0.241481 0,1.494164 0.4460814,1.690368 0.4460813,0.196203 5.0956207,-0.664074 5.0956207,-0.664074"
       id="path21" /><path
       style="fill:none;fill-opacity:0.6371;stroke:#000000;stroke-width:0.82816522;stroke-linecap:round;stroke-linejoin:round;stroke-dasharray:none;stroke-dashoffset:2;stroke-opacity:1"
       d="m 10.161821,19.936191 c 0,0 -3.8946331,2.022405 -3.6029649,2.565738 0.2916689,0.543333 0.6176512,1.448887 1.973052,1.509257 1.3554018,0.06037 2.8480579,-3.350551 2.8480579,-3.350551"
       id="path22" /><path
       style="fill:none;fill-opacity:0.6371;stroke:#000000;stroke-width:0.82816522;stroke-linecap:round;stroke-linejoin:round;stroke-dasharray:none;stroke-dashoffset:2;stroke-opacity:1"
       d="m 11.551536,20.388968 c 0,0 -0.22304,3.697681 0.549023,3.622218 0.772064,-0.07546 1.505354,-0.35761 1.852953,-0.935739 0.163836,-0.272496 -0.480396,-1.977128 -0.960791,-2.716664"
       id="path23"
       sodipodi:nodetypes="cssc" /><path
       style="fill:none;fill-opacity:0.6371;stroke:#000000;stroke-width:0.82816522;stroke-linecap:round;stroke-linejoin:round;stroke-dasharray:none;stroke-dashoffset:2;stroke-opacity:1"
       d="m 13.353018,20.660635 c 0,0 2.865214,1.177221 3.465707,1.403609 0.600495,0.22639 2.007366,-1.11685 2.127466,-1.539443 0.120091,-0.422591 -3.585808,-1.101758 -3.585808,-1.101758"
       id="path24" /><path
       style="fill:none;fill-opacity:0.6371;stroke:#000000;stroke-width:0.82816522;stroke-linecap:round;stroke-linejoin:round;stroke-dasharray:none;stroke-dashoffset:2;stroke-opacity:1"
       d="m 16.063818,18.57786 c 0,0 4.512283,-0.181112 4.495127,0.120743 -0.01715,0.301852 -0.446082,1.34324 -0.90932,1.463981"
       id="path25" /><path
       style="fill:#000000;fill-opacity:0.341467;stroke:none;stroke-width:0.82816522;stroke-linecap:round;stroke-linejoin:round;stroke-dasharray:none;stroke-dashoffset:2"
       d="m 7.2560328,19.564619 c 0,0 -3.67622,0.380299 -3.7015733,0.532418 -0.025354,0.152119 0.5831246,1.445135 0.5831246,1.445135 l 3.397334,-0.02536 -0.7859502,1.064835 c 0,0 0.6845372,1.369075 1.2423087,1.394428 0.5577714,0.02536 2.1043194,-0.963422 2.1043194,-0.963422 l 1.166249,-1.647961 0.507065,2.636737 c 0,0 2.028259,-0.354946 2.205732,-0.785951 0.177472,-0.431004 -0.811304,-2.332498 -0.811304,-2.332498 l 3.574807,1.369076 c 0,0 1.800079,-0.456359 1.87614,-0.836658 0.07606,-0.380299 0.887363,-0.963422 0.887363,-0.963422 l 0.912716,-1.216957 -4.157932,-0.253531 c 0,0 -2.180378,0.126766 -2.940975,0.507064 -0.760596,0.380299 -4.4875233,-0.278884 -4.4875233,-0.278884 z"
       id="path1"
       sodipodi:nodetypes="cscccccccsccscccscc" /></g></svg>
